<svg width="32" height="32" viewBox="0 0 32 32" fill="none" xmlns="http://www.w3.org/2000/svg">
  <path d="M7.05647 15.1409C7.46005 9.99913 12.5209 6.16403 17.5967 7.15732C18.9322 7.39817 20.1958 7.93804 21.2933 8.73653C22.3907 9.53503 23.2935 10.5715 23.9341 11.7683C24.5746 12.9652 24.9364 14.2915 24.9923 15.648C25.0483 17.0046 24.7969 18.3562 24.2571 19.6018C23.5667 21.2827 22.3517 22.6953 20.7933 23.6287C18.9958 24.7426 16.8682 25.199 14.7724 24.9202C10.3188 24.3764 6.78893 20.2211 7.00983 15.6688C7.02246 15.5382 7.04157 15.3386 7.05647 15.1409ZM18.1849 12.4903C17.9483 12.4861 17.7212 12.3963 17.5456 12.2375C16.8936 11.6195 16.2798 10.961 15.6427 10.3255C15.0946 9.77973 14.6509 9.87727 14.3685 10.6058C14.0478 11.4257 13.7589 12.2602 13.4149 13.0688C13.3063 13.2963 13.1203 13.4777 12.8902 13.5805C12.0895 13.9045 11.2655 14.1638 10.4542 14.4639C9.72571 14.7335 9.62789 15.1769 10.1694 15.7404C10.8746 16.4709 11.5965 17.1845 12.291 17.926C12.4423 18.0921 12.5419 18.2988 12.5776 18.5207C12.6946 19.3934 12.7772 20.2729 12.8665 21.1499C12.9472 21.9507 13.355 22.1756 14.0475 21.7763C14.8971 21.2837 15.7295 20.7655 16.5855 20.2875C16.8126 20.1624 17.0701 20.1036 17.3289 20.1177C18.2718 20.2049 19.2127 20.3258 20.1536 20.4554C21.0945 20.585 21.3812 20.2535 21.09 19.3276C20.8396 18.5356 20.574 17.7474 20.3509 16.9466C20.288 16.7134 20.2947 16.4668 20.37 16.2372C20.699 15.2974 21.0709 14.3702 21.4191 13.4359C21.7141 12.6458 21.4531 12.2848 20.7713 12.3166C19.8119 12.3863 18.9983 12.465 18.1849 12.4903Z" fill="white"></path><path fill-rule="evenodd" clip-rule="evenodd" d="M14.8571 1.15C14.8571 0.514873 15.3719 0 16.0071 0C16.6422 0 17.1571 0.514873 17.1571 1.15V2.33374C23.6856 2.87906 28.9146 7.99753 29.6307 14.4761H30.85C31.4851 14.4761 32 14.991 32 15.6261C32 16.2612 31.4851 16.7761 30.85 16.7761H29.6928C29.3118 23.6049 23.9349 29.1 17.1571 29.6661V30.85C17.1571 31.4851 16.6422 32 16.0071 32C15.3719 32 14.8571 31.4851 14.8571 30.85V29.6672C8.07277 29.1074 2.68871 23.6095 2.30746 16.7761H1.15C0.514872 16.7761 0 16.2612 0 15.6261C0 14.991 0.514873 14.4761 1.15 14.4761H2.36957C3.08625 7.99295 8.32204 2.87183 14.8571 2.33259V1.15ZM16.0001 27.7142C22.4698 27.7142 27.7144 22.4695 27.7144 15.9999C27.7144 9.53029 22.4698 4.28563 16.0001 4.28563C9.53053 4.28563 4.28587 9.53029 4.28587 15.9999C4.28587 22.4695 9.53053 27.7142 16.0001 27.7142Z" fill="white"></path>
</svg>