<svg width="28" height="28" viewBox="0 0 28 28" fill="none" xmlns="http://www.w3.org/2000/svg"><g><path d="M4.625 0C4.97031 0 5.25 0.319643 5.25 0.714286V16.4286C5.25 17.6116 6.08945 18.5714 7.125 18.5714H23.375C23.7188 18.5714 24 18.8929 24 19.2857C24 19.6786 23.7188 20 23.375 20H7.125C5.39922 20 4 18.4018 4 16.4286V0.714286C4 0.319643 4.27984 0 4.625 0ZM9.625 10C9.96875 10 10.25 10.3214 10.25 10.7143V15C10.25 15.3929 9.96875 15.7143 9.625 15.7143C9.28125 15.7143 9 15.3929 9 15V10.7143C9 10.3214 9.28125 10 9.625 10ZM14 15C14 15.3929 13.7188 15.7143 13.375 15.7143C13.0312 15.7143 12.75 15.3929 12.75 15V5C12.75 4.60714 13.0312 4.28571 13.375 4.28571C13.7188 4.28571 14 4.60714 14 5V15ZM17.125 7.14286C17.4688 7.14286 17.75 7.46429 17.75 7.85714V15C17.75 15.3929 17.4688 15.7143 17.125 15.7143C16.7812 15.7143 16.5 15.3929 16.5 15V7.85714C16.5 7.46429 16.7812 7.14286 17.125 7.14286ZM21.5 15C21.5 15.3929 21.2188 15.7143 20.875 15.7143C20.5312 15.7143 20.25 15.3929 20.25 15V3.57143C20.25 3.17857 20.5312 2.85714 20.875 2.85714C21.2188 2.85714 21.5 3.17857 21.5 3.57143V15Z" fill="white"></path></g><defs><filter id="filter0_d_3615_2978" x="0" y="0" width="28" height="28" filterUnits="userSpaceOnUse" color-interpolation-filters="sRGB"><feFlood flood-opacity="0" result="BackgroundImageFix"></feFlood><feColorMatrix in="SourceAlpha" type="matrix" values="0 0 0 0 0 0 0 0 0 0 0 0 0 0 0 0 0 0 127 0" result="hardAlpha"></feColorMatrix><feOffset dy="4"></feOffset><feGaussianBlur stdDeviation="2"></feGaussianBlur><feComposite in2="hardAlpha" operator="out"></feComposite><feColorMatrix type="matrix" values="0 0 0 0 0 0 0 0 0 0 0 0 0 0 0 0 0 0 0.25 0"></feColorMatrix><feBlend mode="normal" in2="BackgroundImageFix" result="effect1_dropShadow_3615_2978"></feBlend><feBlend mode="normal" in="SourceGraphic" in2="effect1_dropShadow_3615_2978" result="shape"></feBlend></filter></defs></svg>